<svg xmlns="http://www.w3.org/2000/svg" viewBox="0 0 577.75 235.44"><defs><style>.cls-1{fill:#ff006b;}.cls-2{fill:#f4f40c;}.cls-3{fill:#2ea3ff;}.cls-4{fill:#fff;}.cls-5{fill:#8bff94;}</style></defs><title>research</title><g id="Camada_6" data-name="Camada 6"><rect class="cls-1" x="-0.72" width="578" height="236"/></g><g id="Camada_5" data-name="Camada 5"><path class="cls-2" d="M88.58,72.19V90.25a6,6,0,0,0,1.33,4.17,5,5,0,0,0,3.91,1.47,5.17,5.17,0,0,0,4-1.47,5.87,5.87,0,0,0,1.37-4.17V72.19h7.36v18a12.91,12.91,0,0,1-1.72,6.84,11.06,11.06,0,0,1-4.63,4.21,14.46,14.46,0,0,1-6.47,1.42,14.15,14.15,0,0,1-6.38-1.4,10.38,10.38,0,0,1-4.45-4.21,13.48,13.48,0,0,1-1.64-6.86v-18Z"/><path class="cls-2" d="M116.65,101.61a9.74,9.74,0,0,1-4.19-3.19,8.59,8.59,0,0,1-1.65-5.07h7.82a3.82,3.82,0,0,0,1.16,2.56,3.72,3.72,0,0,0,2.58.88A4,4,0,0,0,125,96a2.53,2.53,0,0,0,1-2.09,2.49,2.49,0,0,0-.75-1.85,6.22,6.22,0,0,0-1.85-1.2,28,28,0,0,0-3.12-1.08,33.8,33.8,0,0,1-4.77-1.8,8.63,8.63,0,0,1-3.18-2.67,7.41,7.41,0,0,1-1.34-4.6,7.92,7.92,0,0,1,3-6.6,14.58,14.58,0,0,1,16,0,8.52,8.52,0,0,1,3.27,6.64h-8a3.09,3.09,0,0,0-1.07-2.3,3.8,3.8,0,0,0-2.54-.84,3.18,3.18,0,0,0-2.15.71,2.6,2.6,0,0,0-.82,2,2.54,2.54,0,0,0,1.38,2.28,22.91,22.91,0,0,0,4.3,1.76,40.29,40.29,0,0,1,4.75,1.89A9.08,9.08,0,0,1,132.26,89a7,7,0,0,1,1.34,4.43,8.67,8.67,0,0,1-1.32,4.69,9.17,9.17,0,0,1-3.8,3.35,13,13,0,0,1-5.89,1.25A15.68,15.68,0,0,1,116.65,101.61Z"/><path class="cls-2" d="M145.46,78.08v6.11h9.85v5.68h-9.85v6.62H156.6v5.89H138.11V72.19H156.6v5.89Z"/><path class="cls-2" d="M176.77,102.38,170.49,91h-1.76v11.4h-7.36V72.19h12.34a13.63,13.63,0,0,1,6.09,1.25,8.54,8.54,0,0,1,3.76,3.42,9.56,9.56,0,0,1,1.25,4.84,8.81,8.81,0,0,1-6.71,8.72l7,12Zm-8-16.6h4.55a4.2,4.2,0,0,0,3-1,3.74,3.74,0,0,0,1-2.79,3.63,3.63,0,0,0-1-2.71,4.2,4.2,0,0,0-3-1h-4.55Z"/><path class="cls-2" d="M205.88,78.08v6.11h9.84v5.68h-9.84v6.62H217v5.89H198.52V72.19H217v5.89Z"/><path class="cls-2" d="M240.28,102.38l-6.15-9.25-5.42,9.25h-8.34L230,87l-9.89-14.84h8.56l6.06,9.12,5.33-9.12h8.35l-9.59,15.23,10,15Z"/><path class="cls-2" d="M274.33,86.71a8.84,8.84,0,0,1-3.7,3.5,13,13,0,0,1-6.19,1.33h-4.56v10.84h-7.35V72.19h11.91a13.58,13.58,0,0,1,6.11,1.25,8.58,8.58,0,0,1,3.74,3.44,10,10,0,0,1,1.25,5A9.78,9.78,0,0,1,274.33,86.71Zm-7.31-2a4.31,4.31,0,0,0,0-5.59,4.38,4.38,0,0,0-3.14-1h-4V85.7h4A4.38,4.38,0,0,0,267,84.71Z"/><path class="cls-2" d="M286.72,78.08v6.11h9.84v5.68h-9.84v6.62h11.13v5.89H279.36V72.19h18.49v5.89Z"/><path class="cls-2" d="M318,102.38,311.74,91H310v11.4h-7.35V72.19H315a13.59,13.59,0,0,1,6.08,1.25,8.54,8.54,0,0,1,3.76,3.42,9.46,9.46,0,0,1,1.25,4.84,8.81,8.81,0,0,1-6.71,8.72l7,12Zm-8-16.6h4.56a4.19,4.19,0,0,0,3-1,3.74,3.74,0,0,0,1-2.79,3.63,3.63,0,0,0-1-2.71,4.19,4.19,0,0,0-3-1H310Z"/><path class="cls-2" d="M338,72.19v30.19h-7.35V72.19Z"/><path class="cls-2" d="M350.7,78.08v6.11h9.85v5.68H350.7v6.62h11.14v5.89H343.35V72.19h18.49v5.89Z"/><path class="cls-2" d="M393.61,102.38h-7.35L374,83.76v18.62h-7.35V72.19H374l12.3,18.71V72.19h7.35Z"/><path class="cls-2" d="M399.63,79.27A13.86,13.86,0,0,1,405,73.8a15.71,15.71,0,0,1,7.85-2,15,15,0,0,1,9.2,2.84,13.63,13.63,0,0,1,5.12,7.74h-8.09a6.49,6.49,0,0,0-2.56-2.88,7.16,7.16,0,0,0-3.76-1,7,7,0,0,0-5.5,2.36,9.14,9.14,0,0,0-2.11,6.32,9.11,9.11,0,0,0,2.11,6.32,7,7,0,0,0,5.5,2.37,7.16,7.16,0,0,0,3.76-1,6.49,6.49,0,0,0,2.56-2.88h8.09a13.55,13.55,0,0,1-5.12,7.72,15.07,15.07,0,0,1-9.2,2.81,15.71,15.71,0,0,1-7.85-2,13.91,13.91,0,0,1-5.4-5.44,17.4,17.4,0,0,1,0-15.93Z"/><path class="cls-2" d="M439.06,78.08v6.11h9.85v5.68h-9.85v6.62H450.2v5.89H431.71V72.19H450.2v5.89Z"/></g><g id="Camada_4" data-name="Camada 4"><path class="cls-3" d="M92.58,83.19v18.06a6,6,0,0,0,1.33,4.17,5,5,0,0,0,3.91,1.47,5.17,5.17,0,0,0,4-1.47,5.87,5.87,0,0,0,1.37-4.17V83.19h7.36v18a12.91,12.91,0,0,1-1.72,6.84,11.06,11.06,0,0,1-4.63,4.21,14.46,14.46,0,0,1-6.47,1.42,14.15,14.15,0,0,1-6.38-1.4,10.38,10.38,0,0,1-4.45-4.21,13.48,13.48,0,0,1-1.64-6.86v-18Z"/><path class="cls-3" d="M120.65,112.61a9.74,9.74,0,0,1-4.19-3.19,8.59,8.59,0,0,1-1.65-5.07h7.82a3.82,3.82,0,0,0,1.16,2.56,3.72,3.72,0,0,0,2.58.88A4,4,0,0,0,129,107a2.53,2.53,0,0,0,1-2.09,2.49,2.49,0,0,0-.75-1.85,6.22,6.22,0,0,0-1.85-1.2,28,28,0,0,0-3.12-1.08,33.8,33.8,0,0,1-4.77-1.8,8.63,8.63,0,0,1-3.18-2.67,7.41,7.41,0,0,1-1.34-4.6,7.92,7.92,0,0,1,3-6.6,14.58,14.58,0,0,1,16,0,8.52,8.52,0,0,1,3.27,6.64h-8a3.09,3.09,0,0,0-1.07-2.3,3.8,3.8,0,0,0-2.54-.84,3.18,3.18,0,0,0-2.15.71,2.6,2.6,0,0,0-.82,2,2.54,2.54,0,0,0,1.38,2.28,22.91,22.91,0,0,0,4.3,1.76,40.29,40.29,0,0,1,4.75,1.89,9.08,9.08,0,0,1,3.16,2.62,7,7,0,0,1,1.34,4.43,8.67,8.67,0,0,1-1.32,4.69,9.17,9.17,0,0,1-3.8,3.35,13,13,0,0,1-5.89,1.25A15.68,15.68,0,0,1,120.65,112.61Z"/><path class="cls-3" d="M149.46,89.08v6.11h9.85v5.68h-9.85v6.62H160.6v5.89H142.11V83.19H160.6v5.89Z"/><path class="cls-3" d="M180.77,113.38,174.49,102h-1.76v11.4h-7.36V83.19h12.34a13.63,13.63,0,0,1,6.09,1.25,8.54,8.54,0,0,1,3.76,3.42,9.56,9.56,0,0,1,1.25,4.84,8.81,8.81,0,0,1-6.71,8.72l7,12Zm-8-16.6h4.55a4.2,4.2,0,0,0,3-1,3.74,3.74,0,0,0,1-2.79,3.63,3.63,0,0,0-1-2.71,4.2,4.2,0,0,0-3-1h-4.55Z"/><path class="cls-3" d="M209.88,89.08v6.11h9.84v5.68h-9.84v6.62H221v5.89H202.52V83.19H221v5.89Z"/><path class="cls-3" d="M244.28,113.38l-6.15-9.25-5.42,9.25h-8.34L234,98l-9.89-14.84h8.56l6.06,9.12,5.33-9.12h8.35l-9.59,15.23,10,15Z"/><path class="cls-3" d="M278.33,97.71a8.84,8.84,0,0,1-3.7,3.5,13,13,0,0,1-6.19,1.33h-4.56v10.84h-7.35V83.19h11.91a13.58,13.58,0,0,1,6.11,1.25,8.58,8.58,0,0,1,3.74,3.44,10,10,0,0,1,1.25,5A9.78,9.78,0,0,1,278.33,97.71Zm-7.31-2a4.31,4.31,0,0,0,0-5.59,4.38,4.38,0,0,0-3.14-1h-4V96.7h4A4.38,4.38,0,0,0,271,95.71Z"/><path class="cls-3" d="M290.72,89.08v6.11h9.84v5.68h-9.84v6.62h11.13v5.89H283.36V83.19h18.49v5.89Z"/><path class="cls-3" d="M322,113.38,315.74,102H314v11.4h-7.35V83.19H319a13.59,13.59,0,0,1,6.08,1.25,8.54,8.54,0,0,1,3.76,3.42,9.46,9.46,0,0,1,1.25,4.84,8.81,8.81,0,0,1-6.71,8.72l7,12Zm-8-16.6h4.56a4.19,4.19,0,0,0,3-1,3.74,3.74,0,0,0,1-2.79,3.63,3.63,0,0,0-1-2.71,4.19,4.19,0,0,0-3-1H314Z"/><path class="cls-3" d="M342,83.19v30.19h-7.35V83.19Z"/><path class="cls-3" d="M354.7,89.08v6.11h9.85v5.68H354.7v6.62h11.14v5.89H347.35V83.19h18.49v5.89Z"/><path class="cls-3" d="M397.61,113.38h-7.35L378,94.76v18.62h-7.35V83.19H378l12.3,18.71V83.19h7.35Z"/><path class="cls-3" d="M403.63,90.27A13.86,13.86,0,0,1,409,84.8a15.71,15.71,0,0,1,7.85-2,15,15,0,0,1,9.2,2.84,13.63,13.63,0,0,1,5.12,7.74h-8.09a6.49,6.49,0,0,0-2.56-2.88,7.16,7.16,0,0,0-3.76-1,7,7,0,0,0-5.5,2.36,10.52,10.52,0,0,0,0,12.64,7,7,0,0,0,5.5,2.37,7.16,7.16,0,0,0,3.76-1,6.49,6.49,0,0,0,2.56-2.88h8.09a13.55,13.55,0,0,1-5.12,7.72,15.07,15.07,0,0,1-9.2,2.81,15.71,15.71,0,0,1-7.85-2,13.91,13.91,0,0,1-5.4-5.44,17.4,17.4,0,0,1,0-15.93Z"/><path class="cls-3" d="M443.06,89.08v6.11h9.85v5.68h-9.85v6.62H454.2v5.89H435.71V83.19H454.2v5.89Z"/></g><g id="Camada_3" data-name="Camada 3"><path class="cls-4" d="M99.58,90.19v18.06a6,6,0,0,0,1.33,4.17,5,5,0,0,0,3.91,1.47,5.17,5.17,0,0,0,4-1.47,5.87,5.87,0,0,0,1.37-4.17V90.19h7.36v18a12.91,12.91,0,0,1-1.72,6.84,11.06,11.06,0,0,1-4.63,4.21,14.46,14.46,0,0,1-6.47,1.42,14.15,14.15,0,0,1-6.38-1.4,10.38,10.38,0,0,1-4.45-4.21,13.48,13.48,0,0,1-1.64-6.86v-18Z"/><path class="cls-4" d="M127.65,119.61a9.74,9.74,0,0,1-4.19-3.19,8.59,8.59,0,0,1-1.65-5.07h7.82a3.82,3.82,0,0,0,1.16,2.56,3.72,3.72,0,0,0,2.58.88A4,4,0,0,0,136,114a2.53,2.53,0,0,0,1-2.09,2.49,2.49,0,0,0-.75-1.85,6.22,6.22,0,0,0-1.85-1.2,28,28,0,0,0-3.12-1.08,33.8,33.8,0,0,1-4.77-1.8,8.63,8.63,0,0,1-3.18-2.67,7.41,7.41,0,0,1-1.34-4.6,7.92,7.92,0,0,1,3-6.6,14.58,14.58,0,0,1,16,0,8.52,8.52,0,0,1,3.27,6.64h-8a3.09,3.09,0,0,0-1.07-2.3,3.8,3.8,0,0,0-2.54-.84,3.18,3.18,0,0,0-2.15.71,2.6,2.6,0,0,0-.82,2,2.54,2.54,0,0,0,1.38,2.28,22.91,22.91,0,0,0,4.3,1.76,40.29,40.29,0,0,1,4.75,1.89,9.08,9.08,0,0,1,3.16,2.62,7,7,0,0,1,1.34,4.43,8.67,8.67,0,0,1-1.32,4.69,9.17,9.17,0,0,1-3.8,3.35,13,13,0,0,1-5.89,1.25A15.68,15.68,0,0,1,127.65,119.61Z"/><path class="cls-4" d="M156.46,96.08v6.11h9.85v5.68h-9.85v6.62H167.6v5.89H149.11V90.19H167.6v5.89Z"/><path class="cls-4" d="M187.77,120.38,181.49,109h-1.76v11.4h-7.36V90.19h12.34a13.63,13.63,0,0,1,6.09,1.25,8.54,8.54,0,0,1,3.76,3.42,9.56,9.56,0,0,1,1.25,4.84,8.81,8.81,0,0,1-6.71,8.72l7,12Zm-8-16.6h4.55a4.2,4.2,0,0,0,3-1,3.74,3.74,0,0,0,1-2.79,3.63,3.63,0,0,0-1-2.71,4.2,4.2,0,0,0-3-1h-4.55Z"/><path class="cls-4" d="M216.88,96.08v6.11h9.84v5.68h-9.84v6.62H228v5.89H209.52V90.19H228v5.89Z"/><path class="cls-4" d="M251.28,120.38l-6.15-9.25-5.42,9.25h-8.34L241,105l-9.89-14.84h8.56l6.06,9.12,5.33-9.12h8.35l-9.59,15.23,10,15Z"/><path class="cls-4" d="M285.33,104.71a8.84,8.84,0,0,1-3.7,3.5,13,13,0,0,1-6.19,1.33h-4.56v10.84h-7.35V90.19h11.91a13.58,13.58,0,0,1,6.11,1.25,8.58,8.58,0,0,1,3.74,3.44,10,10,0,0,1,1.25,5A9.78,9.78,0,0,1,285.33,104.71Zm-7.31-2a4.31,4.31,0,0,0,0-5.59,4.38,4.38,0,0,0-3.14-1h-4v7.57h4A4.38,4.38,0,0,0,278,102.71Z"/><path class="cls-4" d="M297.72,96.08v6.11h9.84v5.68h-9.84v6.62h11.13v5.89H290.36V90.19h18.49v5.89Z"/><path class="cls-4" d="M329,120.38,322.74,109H321v11.4h-7.35V90.19H326a13.59,13.59,0,0,1,6.08,1.25,8.54,8.54,0,0,1,3.76,3.42,9.46,9.46,0,0,1,1.25,4.84,8.81,8.81,0,0,1-6.71,8.72l7,12Zm-8-16.6h4.56a4.19,4.19,0,0,0,3-1,3.74,3.74,0,0,0,1-2.79,3.63,3.63,0,0,0-1-2.71,4.19,4.19,0,0,0-3-1H321Z"/><path class="cls-4" d="M349,90.19v30.19h-7.35V90.19Z"/><path class="cls-4" d="M361.7,96.08v6.11h9.85v5.68H361.7v6.62h11.14v5.89H354.35V90.19h18.49v5.89Z"/><path class="cls-4" d="M404.61,120.38h-7.35L385,101.76v18.62h-7.35V90.19H385l12.3,18.71V90.19h7.35Z"/><path class="cls-4" d="M410.63,97.27A13.86,13.86,0,0,1,416,91.8a15.71,15.71,0,0,1,7.85-2,15,15,0,0,1,9.2,2.84,13.63,13.63,0,0,1,5.12,7.74h-8.09a6.49,6.49,0,0,0-2.56-2.88,7.16,7.16,0,0,0-3.76-1,7,7,0,0,0-5.5,2.36,10.52,10.52,0,0,0,0,12.64,7,7,0,0,0,5.5,2.37,7.16,7.16,0,0,0,3.76-1,6.49,6.49,0,0,0,2.56-2.88h8.09a13.55,13.55,0,0,1-5.12,7.72,15.07,15.07,0,0,1-9.2,2.81,15.71,15.71,0,0,1-7.85-2,13.91,13.91,0,0,1-5.4-5.44,17.4,17.4,0,0,1,0-15.93Z"/><path class="cls-4" d="M450.06,96.08v6.11h9.85v5.68h-9.85v6.62H461.2v5.89H442.71V90.19H461.2v5.89Z"/></g><g id="Camada_1" data-name="Camada 1"><path class="cls-5" d="M106.58,105.19v18.06a6,6,0,0,0,1.33,4.17,5,5,0,0,0,3.91,1.47,5.17,5.17,0,0,0,4-1.47,5.87,5.87,0,0,0,1.37-4.17V105.19h7.36v18a12.91,12.91,0,0,1-1.72,6.84,11.06,11.06,0,0,1-4.63,4.21,14.46,14.46,0,0,1-6.47,1.42,14.15,14.15,0,0,1-6.38-1.4,10.38,10.38,0,0,1-4.45-4.21,13.48,13.48,0,0,1-1.64-6.86v-18Z"/><path class="cls-5" d="M134.65,134.61a9.74,9.74,0,0,1-4.19-3.19,8.59,8.59,0,0,1-1.65-5.07h7.82a3.82,3.82,0,0,0,1.16,2.56,3.72,3.72,0,0,0,2.58.88A4,4,0,0,0,143,129a2.53,2.53,0,0,0,1-2.09,2.49,2.49,0,0,0-.75-1.85,6.22,6.22,0,0,0-1.85-1.2,28,28,0,0,0-3.12-1.08,33.8,33.8,0,0,1-4.77-1.8,8.63,8.63,0,0,1-3.18-2.67,7.41,7.41,0,0,1-1.34-4.6,7.92,7.92,0,0,1,3.05-6.6,14.58,14.58,0,0,1,16,0,8.52,8.52,0,0,1,3.27,6.64h-8a3.09,3.09,0,0,0-1.07-2.3,3.8,3.8,0,0,0-2.54-.84,3.18,3.18,0,0,0-2.15.71,2.6,2.6,0,0,0-.82,2,2.54,2.54,0,0,0,1.38,2.28,22.91,22.91,0,0,0,4.3,1.76,40.29,40.29,0,0,1,4.75,1.89,9.08,9.08,0,0,1,3.16,2.62,7,7,0,0,1,1.34,4.43,8.67,8.67,0,0,1-1.32,4.69,9.17,9.17,0,0,1-3.8,3.35,13,13,0,0,1-5.89,1.25A15.68,15.68,0,0,1,134.65,134.61Z"/><path class="cls-5" d="M163.46,111.08v6.11h9.85v5.68h-9.85v6.62H174.6v5.89H156.11V105.19H174.6v5.89Z"/><path class="cls-5" d="M194.77,135.38,188.49,124h-1.76v11.4h-7.36V105.19h12.34a13.63,13.63,0,0,1,6.09,1.25,8.54,8.54,0,0,1,3.76,3.42,9.56,9.56,0,0,1,1.25,4.84,8.81,8.81,0,0,1-6.71,8.72l7,12Zm-8-16.6h4.55a4.2,4.2,0,0,0,3-1,3.74,3.74,0,0,0,1-2.79,3.63,3.63,0,0,0-1-2.71,4.2,4.2,0,0,0-3-1h-4.55Z"/><path class="cls-5" d="M223.88,111.08v6.11h9.84v5.68h-9.84v6.62H235v5.89H216.52V105.19H235v5.89Z"/><path class="cls-5" d="M258.28,135.38l-6.15-9.25-5.42,9.25h-8.34L248,120l-9.89-14.84h8.56l6.06,9.12,5.33-9.12h8.35l-9.59,15.23,10,15Z"/><path class="cls-5" d="M292.33,119.71a8.84,8.84,0,0,1-3.7,3.5,13,13,0,0,1-6.19,1.33h-4.56v10.84h-7.35V105.19h11.91a13.58,13.58,0,0,1,6.11,1.25,8.58,8.58,0,0,1,3.74,3.44,10,10,0,0,1,1.25,5A9.78,9.78,0,0,1,292.33,119.71Zm-7.31-2a4.31,4.31,0,0,0,0-5.59,4.38,4.38,0,0,0-3.14-1h-4v7.57h4A4.38,4.38,0,0,0,285,117.71Z"/><path class="cls-5" d="M304.72,111.08v6.11h9.84v5.68h-9.84v6.62h11.13v5.89H297.36V105.19h18.49v5.89Z"/><path class="cls-5" d="M336,135.38,329.74,124H328v11.4h-7.35V105.19H333a13.59,13.59,0,0,1,6.08,1.25,8.54,8.54,0,0,1,3.76,3.42,9.46,9.46,0,0,1,1.25,4.84,8.81,8.81,0,0,1-6.71,8.72l7,12Zm-8-16.6h4.56a4.19,4.19,0,0,0,3-1,3.74,3.74,0,0,0,1-2.79,3.63,3.63,0,0,0-1-2.71,4.19,4.19,0,0,0-3-1H328Z"/><path class="cls-5" d="M356,105.19v30.19h-7.35V105.19Z"/><path class="cls-5" d="M368.7,111.08v6.11h9.85v5.68H368.7v6.62h11.14v5.89H361.35V105.19h18.49v5.89Z"/><path class="cls-5" d="M411.61,135.38h-7.35L392,116.76v18.62h-7.35V105.19H392l12.3,18.71V105.19h7.35Z"/><path class="cls-5" d="M417.63,112.27a13.86,13.86,0,0,1,5.4-5.47,15.71,15.71,0,0,1,7.85-2,15,15,0,0,1,9.2,2.84,13.63,13.63,0,0,1,5.12,7.74h-8.09a6.49,6.49,0,0,0-2.56-2.88,7.16,7.16,0,0,0-3.76-1,7,7,0,0,0-5.5,2.36,10.52,10.52,0,0,0,0,12.64,7,7,0,0,0,5.5,2.37,7.16,7.16,0,0,0,3.76-1,6.49,6.49,0,0,0,2.56-2.88h8.09a13.55,13.55,0,0,1-5.12,7.72,15.07,15.07,0,0,1-9.2,2.81,15.71,15.71,0,0,1-7.85-2,13.91,13.91,0,0,1-5.4-5.44,17.4,17.4,0,0,1,0-15.93Z"/><path class="cls-5" d="M457.06,111.08v6.11h9.85v5.68h-9.85v6.62H468.2v5.89H449.71V105.19H468.2v5.89Z"/></g><g id="Camada_2" data-name="Camada 2"><path d="M113.58,118.19v18.06a6,6,0,0,0,1.33,4.17,5,5,0,0,0,3.91,1.47,5.17,5.17,0,0,0,4-1.47,5.87,5.87,0,0,0,1.37-4.17V118.19h7.36v18a12.91,12.91,0,0,1-1.72,6.84,11.06,11.06,0,0,1-4.63,4.21,14.46,14.46,0,0,1-6.47,1.42,14.15,14.15,0,0,1-6.38-1.4,10.38,10.38,0,0,1-4.45-4.21,13.48,13.48,0,0,1-1.64-6.86v-18Z"/><path d="M141.65,147.61a9.74,9.74,0,0,1-4.19-3.19,8.59,8.59,0,0,1-1.65-5.07h7.82a3.82,3.82,0,0,0,1.16,2.56,3.72,3.72,0,0,0,2.58.88A4,4,0,0,0,150,142a2.53,2.53,0,0,0,1-2.09,2.49,2.49,0,0,0-.75-1.85,6.22,6.22,0,0,0-1.85-1.2,28,28,0,0,0-3.12-1.08,33.8,33.8,0,0,1-4.77-1.8,8.63,8.63,0,0,1-3.18-2.67,7.41,7.41,0,0,1-1.34-4.6,7.92,7.92,0,0,1,3.05-6.6,14.58,14.58,0,0,1,16,0,8.52,8.52,0,0,1,3.27,6.64h-8a3.09,3.09,0,0,0-1.07-2.3,3.8,3.8,0,0,0-2.54-.84,3.18,3.18,0,0,0-2.15.71,2.6,2.6,0,0,0-.82,2,2.54,2.54,0,0,0,1.38,2.28,22.91,22.91,0,0,0,4.3,1.76,40.29,40.29,0,0,1,4.75,1.89,9.08,9.08,0,0,1,3.16,2.62,7,7,0,0,1,1.34,4.43,8.67,8.67,0,0,1-1.32,4.69,9.17,9.17,0,0,1-3.8,3.35,13,13,0,0,1-5.89,1.25A15.68,15.68,0,0,1,141.65,147.61Z"/><path d="M170.46,124.08v6.11h9.85v5.68h-9.85v6.62H181.6v5.89H163.11V118.19H181.6v5.89Z"/><path d="M201.77,148.38,195.49,137h-1.76v11.4h-7.36V118.19h12.34a13.63,13.63,0,0,1,6.09,1.25,8.54,8.54,0,0,1,3.76,3.42,9.56,9.56,0,0,1,1.25,4.84,8.81,8.81,0,0,1-6.71,8.72l7,12Zm-8-16.6h4.55a4.2,4.2,0,0,0,3-1,3.74,3.74,0,0,0,1-2.79,3.63,3.63,0,0,0-1-2.71,4.2,4.2,0,0,0-3-1h-4.55Z"/><path d="M230.88,124.08v6.11h9.84v5.68h-9.84v6.62H242v5.89H223.52V118.19H242v5.89Z"/><path d="M265.28,148.38l-6.15-9.25-5.42,9.25h-8.34L255,133l-9.89-14.84h8.56l6.06,9.12,5.33-9.12h8.35l-9.59,15.23,10,15Z"/><path d="M299.33,132.71a8.84,8.84,0,0,1-3.7,3.5,13,13,0,0,1-6.19,1.33h-4.56v10.84h-7.35V118.19h11.91a13.58,13.58,0,0,1,6.11,1.25,8.58,8.58,0,0,1,3.74,3.44,10,10,0,0,1,1.25,5A9.78,9.78,0,0,1,299.33,132.71Zm-7.31-2a4.31,4.31,0,0,0,0-5.59,4.38,4.38,0,0,0-3.14-1h-4v7.57h4A4.38,4.38,0,0,0,292,130.71Z"/><path d="M311.72,124.08v6.11h9.84v5.68h-9.84v6.62h11.13v5.89H304.36V118.19h18.49v5.89Z"/><path d="M343,148.38,336.74,137H335v11.4h-7.35V118.19H340a13.59,13.59,0,0,1,6.08,1.25,8.54,8.54,0,0,1,3.76,3.42,9.46,9.46,0,0,1,1.25,4.84,8.81,8.81,0,0,1-6.71,8.72l7,12Zm-8-16.6h4.56a4.19,4.19,0,0,0,3-1,3.74,3.74,0,0,0,1-2.79,3.63,3.63,0,0,0-1-2.71,4.19,4.19,0,0,0-3-1H335Z"/><path d="M363,118.19v30.19h-7.35V118.19Z"/><path d="M375.7,124.08v6.11h9.85v5.68H375.7v6.62h11.14v5.89H368.35V118.19h18.49v5.89Z"/><path d="M418.61,148.38h-7.35L399,129.76v18.62h-7.35V118.19H399l12.3,18.71V118.19h7.35Z"/><path d="M424.63,125.27a13.86,13.86,0,0,1,5.4-5.47,15.71,15.71,0,0,1,7.85-2,15,15,0,0,1,9.2,2.84,13.63,13.63,0,0,1,5.12,7.74h-8.09a6.49,6.49,0,0,0-2.56-2.88,7.16,7.16,0,0,0-3.76-1,7,7,0,0,0-5.5,2.36,10.52,10.52,0,0,0,0,12.64,7,7,0,0,0,5.5,2.37,7.16,7.16,0,0,0,3.76-1,6.49,6.49,0,0,0,2.56-2.88h8.09a13.55,13.55,0,0,1-5.12,7.72,15.07,15.07,0,0,1-9.2,2.81,15.71,15.71,0,0,1-7.85-2,13.91,13.91,0,0,1-5.4-5.44,17.4,17.4,0,0,1,0-15.93Z"/><path d="M464.06,124.08v6.11h9.85v5.68h-9.85v6.62H475.2v5.89H456.71V118.19H475.2v5.89Z"/></g></svg>